# xmcd
#
# Track frame offsets:
#	150
#	10993
#	23123
#	32665
#	44579
#	56125
#	68994
#	81477
#	92964
#	103446
#	117602
#	128839
#	141114
#	155955
#
# Disc length: 2243 seconds
#
# Revision: 0
# Processed by: cddbd v1.5.1PL2 Copyright (c) Steve Scherf et al.
# Submitted via: EasyCDDAExtractor 9.0.0.1
#
DISCID=d608c10e
DTITLE=Roy Drusky - Songs of Love and Life. 1995
DYEAR=1995
DGENRE=Country
TTITLE0=Such a Fool
TTITLE1=Another (Just Like Me)
TTITLE2=Peel Me a Nanner
TTITLE3=Yes, Mr. Peters
TTITLE4=Husbands and Wives
TTITLE5=Tip of My Fingers
TTITLE6=If the Whole World Stopped Lov
TTITLE7=Make the World Go Away
TTITLE8=All My Hard Times
TTITLE9=Jody and the Kid
TTITLE10=(My Friends Are Gonna Be) Stra
TTITLE11=Long Long Texas Road
TTITLE12=She Thinks I Still Care
TTITLE13=Three Hearts in a Tangle
EXTD=
EXTT0=
EXTT1=
EXTT2=
EXTT3=
EXTT4=
EXTT5=
EXTT6=
EXTT7=
EXTT8=
EXTT9=
EXTT10=
EXTT11=
EXTT12=
EXTT13=
PLAYORDER=
